<?xml version="1.0" encoding="UTF-8" standalone="no"?>
<!-- Created with Inkscape (http://www.inkscape.org/) -->

<svg
   width="959.99994"
   height="959.99994"
   viewBox="0 0 253.99997 253.99998"
   version="1.1"
   id="svg1"
   xml:space="preserve"
   inkscape:version="1.4.2 (f4327f4, 2025-05-13)"
   sodipodi:docname="nic-brand.svg"
   inkscape:export-batch-path="D:\sources\processa\gitlab\nic\base-de-conhecimento\20-Elaborados\Anexos"
   inkscape:export-batch-name=""
   xmlns:inkscape="http://www.inkscape.org/namespaces/inkscape"
   xmlns:sodipodi="http://sodipodi.sourceforge.net/DTD/sodipodi-0.dtd"
   xmlns="http://www.w3.org/2000/svg"
   xmlns:svg="http://www.w3.org/2000/svg"><sodipodi:namedview
     id="namedview1"
     pagecolor="#ffffff"
     bordercolor="#000000"
     borderopacity="0.25"
     inkscape:showpageshadow="2"
     inkscape:pageopacity="0.0"
     inkscape:pagecheckerboard="false"
     inkscape:deskcolor="#d1d1d1"
     inkscape:document-units="px"
     showborder="true"
     labelstyle="default"
     inkscape:zoom="0.125"
     inkscape:cx="-6939.9998"
     inkscape:cy="-6463.9998"
     inkscape:window-width="1920"
     inkscape:window-height="996"
     inkscape:window-x="1358"
     inkscape:window-y="-8"
     inkscape:window-maximized="1"
     inkscape:current-layer="layer1"
     showguides="true" /><defs
     id="defs1" /><g
     inkscape:label="Camada 1"
     inkscape:groupmode="layer"
     id="layer1"
     transform="translate(171.66325,319.66571)"><g
       id="favicon-dark"
       transform="matrix(1.1967477,0,0,1.1967477,-184.75003,2129.9192)"><rect
         style="fill:#101820;fill-opacity:1;stroke:none;stroke-width:0.221086;stroke-linecap:square;stroke-linejoin:miter;stroke-dasharray:none;stroke-opacity:1;paint-order:markers stroke fill"
         id="rect291"
         width="212.24188"
         height="212.24188"
         x="10.935286"
         y="-2046.8683"
         rx="76.209274"
         ry="76.209274" /><g
         id="g297"
         transform="matrix(0.96684909,0,0,0.96684909,-2.672053,-64.337439)"><path
           id="path291"
           style="baseline-shift:baseline;display:inline;overflow:visible;vector-effect:none;fill:#eaeff5;fill-opacity:1;stroke-width:1.00124;stroke-linecap:square;paint-order:markers stroke fill;enable-background:accumulate;stop-color:#000000"
           d="m 192.40582,-1991.4355 c -25.99277,0 -50.22412,19.0825 -50.24964,48.6606 l -0.004,4.6597 c -0.0203,23.5335 18.4638,44.3616 43.03355,47.6116 -2.54619,-3.0538 -4.0783,-6.9829 -4.0783,-11.2681 0,-5.4387 2.46798,-10.3032 6.34483,-13.5335 -12.96397,-2.2838 -20.56764,-11.9335 -20.56722,-22.4674 l 5.2e-4,-5.517 c 5.1e-4,-12.7308 10.2075,-23.414 25.64649,-23.414 h 7.14169 v -24.7319 z m -56.06169,24.0993 c -3.19141,3.2234 -7.61852,5.2209 -12.51035,5.2209 -4.74589,0 -9.0544,-1.8801 -12.22147,-4.9356 v 76.8863 l 24.73182,0.1054 z m -65.16398,-24.0993 c -0.05736,6e-4 -0.114749,6e-4 -0.172083,0 -0.04915,7e-4 -0.09865,0.01 -0.147794,0.01 -18.844349,-0.023 -34.304882,15.6101 -34.304882,34.0641 v 43.0883 c 3.18197,-3.156 7.561584,-5.1061 12.395625,-5.1061 4.802893,0 9.15846,1.925 12.336198,5.0452 v -42.9623 c 0.213822,-4.4609 3.353298,-8.1317 7.550443,-9.1426 0.945385,-0.1856 1.777409,-0.2458 2.342493,-0.2615 0.563841,0.016 1.393492,0.075 2.336291,0.26 4.199876,1.0091 7.342641,4.6815 7.556645,9.1441 v 67.2367 h 24.731824 v -67.3018 -5e-4 c 0,-18.1307 -15.46077,-34.0636 -34.306433,-34.0636 -0.04885,-8e-4 -0.0974,-0.01 -0.146245,-0.01 -0.05734,-8e-4 -0.114723,-6e-4 -0.172082,0 z"
           sodipodi:nodetypes="ssscscsssccscsccccsccscscccccccccsccs" /><path
           style="baseline-shift:baseline;display:inline;overflow:visible;vector-effect:none;fill:#5fbcd3;fill-opacity:1;stroke-linecap:square;paint-order:markers stroke fill;enable-background:accumulate;stop-color:#000000"
           d="m 198.7132,-1917.5278 c 8.72659,0 15.75685,7.0303 15.75686,15.7569 -1e-5,8.7266 -7.03027,15.7545 -15.75686,15.7545 -8.72659,0 -15.75457,-7.0279 -15.75458,-15.7545 1e-5,-8.7266 7.02799,-15.7569 15.75458,-15.7569 z m -74.87859,-46.4393 c -8.72659,0 -15.75685,-7.0302 -15.75686,-15.7568 1e-5,-8.7266 7.03027,-15.7546 15.75686,-15.7546 8.72659,0 15.75457,7.028 15.75458,15.7546 -1e-5,8.7266 -7.02799,15.7568 -15.75458,15.7568 z m -74.883146,46.4393 c 8.72659,0 15.75685,7.0303 15.75686,15.7569 -1e-5,8.7266 -7.03027,15.7545 -15.75686,15.7545 -8.72659,0 -15.75457,-7.0279 -15.75458,-15.7545 1e-5,-8.7266 7.02799,-15.7569 15.75458,-15.7569 z"
           id="path292" /></g></g></g></svg>
